<?xml version="1.0" standalone="no"?>
<!DOCTYPE svg PUBLIC "-//W3C//DTD SVG 20010904//EN"
 "http://www.w3.org/TR/2001/REC-SVG-20010904/DTD/svg10.dtd">
<svg version="1.0" xmlns="http://www.w3.org/2000/svg"
 width="2229.000000pt" height="2229.000000pt" viewBox="0 0 2229.000000 2229.000000"
 preserveAspectRatio="xMidYMid meet">
<metadata>
Created by potrace 1.14, written by Peter Selinger 2001-2017
</metadata>
<g transform="translate(0.000000,2229.000000) scale(0.100000,-0.100000)"
fill="#000000" stroke="none">
<path d="M8059 18426 c-2 -2 -53 -6 -114 -10 -60 -3 -121 -8 -135 -10 -14 -3
-54 -7 -90 -11 -36 -3 -78 -8 -95 -10 -144 -20 -202 -28 -275 -41 -166 -30
-327 -64 -460 -99 -74 -19 -146 -37 -159 -40 -14 -3 -28 -8 -33 -11 -5 -3 -20
-7 -33 -10 -14 -2 -73 -20 -133 -40 -59 -20 -111 -37 -117 -38 -5 -2 -17 -5
-25 -8 -8 -3 -44 -16 -80 -29 -117 -40 -315 -121 -485 -197 -66 -30 -339 -167
-395 -199 -19 -11 -62 -35 -95 -53 -33 -18 -72 -41 -87 -51 -14 -11 -29 -19
-32 -19 -4 0 -19 -8 -34 -19 -15 -10 -88 -58 -162 -106 -193 -126 -446 -314
-554 -410 -6 -5 -45 -39 -86 -75 -214 -186 -549 -526 -723 -735 -33 -38 -66
-79 -76 -90 -44 -52 -225 -302 -290 -398 -65 -97 -231 -364 -231 -371 0 -1
-27 -51 -60 -110 -108 -193 -231 -458 -340 -729 -67 -167 -212 -628 -235 -745
-1 -9 -8 -37 -15 -62 -7 -25 -13 -52 -15 -60 -32 -158 -46 -230 -50 -250 -3
-14 -7 -35 -9 -47 -3 -11 -8 -43 -12 -70 -3 -26 -8 -57 -10 -68 -5 -24 -30
-228 -38 -300 -16 -145 -21 -302 -21 -600 0 -326 9 -547 29 -700 3 -22 8 -65
11 -95 3 -30 8 -67 10 -81 3 -14 7 -41 9 -60 47 -360 165 -815 320 -1234 55
-147 97 -248 110 -264 6 -8 9 -16 7 -18 -9 -10 235 -511 280 -575 11 -14 19
-29 19 -32 0 -18 274 -447 342 -536 11 -14 52 -68 91 -120 68 -90 145 -189
157 -200 3 -3 32 -36 64 -75 219 -262 586 -621 851 -830 28 -22 52 -42 55 -46
3 -3 41 -32 85 -64 44 -33 82 -62 85 -65 11 -12 206 -143 330 -222 270 -172
671 -377 985 -502 66 -27 129 -52 140 -56 73 -30 334 -117 480 -159 156 -45
466 -115 655 -146 149 -25 254 -40 355 -50 126 -13 160 -15 315 -21 292 -12
775 -6 920 10 19 3 62 7 95 11 33 3 85 10 115 15 30 5 73 11 95 14 22 3 67 10
100 16 33 6 76 13 95 16 29 4 149 28 246 48 181 38 321 75 487 127 l127 40 1
437 c1 641 3 742 14 742 6 0 345 -336 755 -745 l745 -745 1352 2 1353 3 -924
925 c-509 509 -1888 1889 -3065 3068 l-2141 2142 0 -1692 c-1 -1400 -4 -2414
-9 -2512 -1 -18 -9 -19 -168 -12 -93 4 -181 9 -198 11 -16 2 -62 6 -100 9 -39
4 -81 8 -95 11 -14 2 -43 6 -65 9 -76 9 -133 20 -333 62 -393 82 -901 293
-1287 532 -118 74 -354 241 -385 272 -3 3 -21 18 -40 34 -154 125 -441 408
-565 557 -11 13 -47 58 -80 99 -33 41 -63 77 -66 80 -21 18 -185 263 -264 396
-185 307 -323 624 -424 969 -24 83 -77 296 -85 345 -3 19 -8 46 -11 60 -9 42
-35 212 -40 265 -3 28 -8 68 -11 90 -23 196 -23 699 0 845 3 14 7 54 11 90 4
36 8 72 10 80 1 8 8 51 15 95 10 65 37 197 65 319 33 143 120 422 137 444 6 6
8 12 5 12 -20 0 185 443 283 614 81 140 206 334 264 407 12 15 30 39 41 55
173 242 637 701 875 864 19 13 37 27 40 30 8 11 210 144 290 192 155 92 178
105 310 170 346 170 717 292 1104 363 77 14 164 28 195 31 31 2 63 7 71 9 42
11 244 20 490 20 279 0 361 -5 555 -30 28 -4 63 -9 78 -11 217 -27 537 -107
772 -191 279 -100 655 -285 860 -423 22 -15 69 -46 105 -70 68 -46 239 -173
286 -212 145 -122 198 -170 321 -292 79 -78 180 -185 225 -240 46 -54 88 -103
93 -110 9 -9 36 -44 77 -101 4 -5 18 -23 31 -40 14 -16 56 -77 95 -135 281
-420 470 -840 592 -1316 22 -83 41 -163 44 -179 3 -16 10 -51 15 -79 19 -93
23 -120 40 -246 39 -290 45 -658 16 -945 -8 -80 -27 -228 -31 -249 -2 -11 -7
-37 -10 -56 -3 -19 -7 -42 -9 -50 -2 -8 -7 -31 -10 -50 -9 -52 -45 -212 -50
-220 -2 -3 -6 -17 -8 -31 -17 -90 -120 -401 -187 -560 -28 -68 -90 -202 -137
-297 -47 -95 -83 -175 -81 -177 95 -104 1376 -1374 1382 -1372 22 7 160 224
288 451 84 148 278 536 278 555 0 4 6 21 14 37 69 142 221 578 284 819 39 146
101 411 107 457 1 12 10 66 20 118 10 52 19 106 21 120 1 14 6 52 10 85 4 33
8 62 9 65 1 3 5 41 9 85 5 44 10 87 11 97 23 120 23 975 0 1158 -3 19 -7 60
-10 90 -3 30 -7 71 -10 90 -3 19 -7 53 -10 75 -3 22 -9 63 -15 90 -5 28 -11
64 -14 80 -15 110 -59 316 -102 490 -38 149 -40 156 -104 365 -125 401 -314
834 -523 1195 -22 38 -46 79 -52 90 -34 62 -286 444 -315 477 -6 7 -36 47 -68
88 -55 73 -175 223 -197 246 -5 6 -30 35 -55 64 -138 164 -425 450 -609 610
-35 30 -69 60 -75 65 -6 6 -36 30 -66 55 -30 25 -57 47 -60 51 -3 3 -32 25
-65 50 -33 24 -62 47 -65 50 -3 3 -39 30 -80 60 -613 445 -1264 758 -1993 959
-267 74 -639 148 -872 175 -27 3 -66 7 -85 10 -19 2 -69 7 -110 11 -41 3 -91
8 -110 11 -39 5 -776 14 -781 9z"/>
<path d="M17460 10627 c-3 -3 -30 -7 -61 -10 -31 -4 -79 -11 -105 -18 -27 -6
-58 -12 -69 -15 -88 -18 -295 -105 -403 -169 -156 -93 -315 -249 -427 -418
-21 -31 -40 -55 -43 -53 -2 3 -17 78 -33 168 -16 90 -38 215 -50 278 l-20 115
-429 0 c-236 0 -432 -3 -435 -7 -9 -9 -10 -6476 -1 -6485 4 -5 874 -8 1023 -4
l32 1 0 1178 c0 647 0 1205 1 1240 l0 64 28 -33 c245 -292 639 -449 1112 -443
115 1 268 12 280 19 3 2 26 6 50 10 25 4 72 13 105 21 33 8 70 17 83 20 33 7
215 76 287 109 93 43 211 110 297 170 149 104 341 284 432 407 26 34 53 70 59
78 25 31 106 160 155 245 24 43 39 75 102 220 17 39 55 148 65 185 1 3 7 25
14 50 21 71 59 259 66 325 4 33 9 62 10 65 24 40 24 690 0 780 -2 8 -7 40 -10
70 -7 57 -40 222 -55 275 -35 120 -74 240 -86 263 -7 15 -14 31 -14 35 0 9
-94 200 -130 262 -12 22 -54 86 -92 142 -305 448 -780 758 -1287 839 -18 3
-43 8 -55 11 -27 6 -390 15 -396 10z m135 -962 c473 -63 833 -469 920 -1035
30 -203 24 -506 -16 -695 -15 -73 -59 -212 -85 -272 -100 -227 -295 -441 -504
-555 -92 -50 -236 -102 -315 -113 -16 -3 -41 -7 -55 -10 -46 -9 -244 -6 -300
5 -30 6 -68 13 -85 16 -108 19 -260 88 -361 165 -209 158 -314 344 -349 619
-8 61 -8 898 0 985 13 144 89 391 131 426 8 6 14 16 14 22 0 18 80 119 144
182 146 145 338 236 548 261 29 3 54 8 56 9 5 5 206 -3 257 -10z"/>
</g>
</svg>
